<svg xmlns="http://www.w3.org/2000/svg" version="1.1" xmlns:xlink="http://www.w3.org/1999/xlink" xmlns:svgjs="http://svgjs.com/svgjs" width="512" height="512" x="0" y="0" viewBox="0 0 512 512" style="enable-background:new 0 0 512 512" xml:space="preserve" class=""><g><g xmlns="http://www.w3.org/2000/svg"><path d="m505.376 263.121c-6.545-6.547-16.188-8.304-24.4-5.014l-227.083-227.082c3.291-8.211 1.535-17.854-5.013-24.4-4.546-4.545-10.839-6.945-17.249-6.59-6.416.355-12.398 3.438-16.412 8.457l-140.374 175.513c-18.43 23.045-16.594 56.157 4.271 77.022l27.312 27.312-22.962 22.962c-2.929 2.93-2.929 7.678 0 10.607l29.863 29.863-99.667 88.889c-8.475 7.559-13.319 17.972-13.644 29.322-.324 11.35 3.92 22.021 11.948 30.05 7.744 7.746 17.944 11.968 28.842 11.968.401 0 .806-.006 1.208-.018 11.351-.324 21.764-5.169 29.322-13.644l88.889-99.667 29.863 29.863c1.465 1.464 3.385 2.196 5.304 2.196s3.839-.732 5.304-2.196l22.962-22.962 27.312 27.312c11.243 11.242 26.04 16.96 40.902 16.96 12.722-.001 25.492-4.19 36.12-12.689l175.513-140.374c5.02-4.014 8.103-9.996 8.458-16.412.357-6.416-2.045-12.704-6.589-17.248zm-445.233 225.234c-4.782 5.363-11.372 8.429-18.555 8.634-7.141.214-13.936-2.479-19.017-7.562-5.08-5.08-7.766-11.834-7.561-19.016.205-7.183 3.271-13.772 8.634-18.555l100.307-89.46 25.651 25.651zm436.846-208.817c-.122 2.193-1.134 4.156-2.85 5.528l-175.513 140.375c-17.066 13.648-41.593 12.291-57.046-3.163l-92.661-92.661c-2.93-2.928-7.678-2.928-10.607 0-2.929 2.93-2.929 7.678 0 10.607l54.742 54.742-17.659 17.66-96.02-96.02 17.66-17.659 16.516 16.516c2.93 2.928 7.678 2.928 10.607 0 2.929-2.93 2.929-7.678 0-10.607l-54.436-54.436c-15.454-15.453-16.813-39.978-3.163-57.046l140.374-175.514c1.372-1.715 3.335-2.727 5.528-2.849 2.203-.124 4.259.667 5.812 2.221 2.744 2.744 2.99 7.102.572 10.137l-139.697 175.374c-8.977 11.27-8.063 27.45 2.123 37.638l170.349 170.348c5.497 5.497 12.738 8.293 20.013 8.293 6.206 0 12.437-2.036 17.625-6.169l72.764-57.962c3.24-2.581 3.774-7.3 1.193-10.539-2.58-3.24-7.299-3.775-10.539-1.193l-22.73 18.106-199.21-199.21 94.428-118.544 223.325 223.325-69.777 55.582c-3.24 2.581-3.774 7.299-1.193 10.539 2.579 3.239 7.298 3.773 10.539 1.193l76.574-60.996c3.035-2.417 7.394-2.172 10.137.573 1.553 1.554 2.342 3.617 2.22 5.811zm-355.66-105.674 196.808 196.808-38.225 30.449c-5.295 4.217-12.899 3.788-17.685-.999l-170.348-170.349c-4.787-4.786-5.216-12.39-.998-17.685z" fill="#000000" data-original="#000000" style="" class=""></path><path d="m50.691 450.702-15.418 15.418c-2.929 2.93-2.929 7.678 0 10.607 1.465 1.464 3.385 2.196 5.304 2.196s3.839-.732 5.304-2.196l15.418-15.418c2.929-2.93 2.929-7.678 0-10.607-2.93-2.928-7.678-2.928-10.608 0z" fill="#000000" data-original="#000000" style="" class=""></path></g></g></svg>