<svg xmlns="http://www.w3.org/2000/svg" version="1.1" xmlns:xlink="http://www.w3.org/1999/xlink" xmlns:svgjs="http://svgjs.com/svgjs" width="512" height="512" x="0" y="0" viewBox="0 0 512 512" style="enable-background:new 0 0 512 512" xml:space="preserve" class=""><g><g xmlns="http://www.w3.org/2000/svg"><path d="m496 40c0-6.421-2.501-12.45-7.028-16.962-4.529-4.537-10.557-7.036-16.972-7.036s-12.442 2.499-16.967 7.031l-192.333 192.333-.004-.004c-1.501-1.5-3.535-2.343-5.657-2.343s-4.156.843-5.657 2.343l-16.971 16.972-22.355-22.364c-19.328-19.315-49.493-21.808-71.726-5.931l-46.33 33.102c-1.913 1.367-3.129 3.506-3.322 5.85-.194 2.344.653 4.654 2.315 6.316l12.452 12.453c-22.764 23.294-50.899 40.953-81.822 51.26l-6.7 2.23c-2.631.876-4.621 3.052-5.259 5.751-.639 2.699.167 5.536 2.128 7.497l169.71 169.71c1.519 1.518 3.561 2.344 5.657 2.343.612 0 1.23-.07 1.84-.214 2.699-.638 4.875-2.628 5.751-5.26l2.229-6.696c6.367-19.101 15.496-37.128 27.13-53.577 7.17-10.127 15.276-19.593 24.133-28.246l12.45 12.45c1.507 1.506 3.544 2.343 5.656 2.343.22 0 .439-.009.66-.027 2.344-.194 4.483-1.409 5.851-3.322l33.102-46.332c15.877-22.233 13.383-52.398-5.934-71.726l-22.357-22.358 16.968-16.968c3.124-3.124 3.124-8.189 0-11.313l-.004-.004 192.323-192.324c4.542-4.527 7.043-10.556 7.043-16.977zm-255.931 209.304 16.97-16.97 22.628 22.627-16.97 16.97c-6.24 6.238-16.389 6.238-22.629 0-3.021-3.022-4.687-7.04-4.687-11.313.001-4.274 1.666-8.292 4.688-11.314zm-27.02 176.257c-11.416 16.14-20.594 33.688-27.326 52.238l-24.849-24.848 39.598-39.598c3.124-3.124 3.124-8.189 0-11.313-3.125-3.124-8.189-3.124-11.314 0l-39.597 39.597-11.314-11.314 39.598-39.598c3.124-3.124 3.124-8.189 0-11.313-3.125-3.124-8.189-3.124-11.314 0l-39.597 39.597-11.313-11.313 39.598-39.598c3.124-3.124 3.124-8.189 0-11.313-3.123-3.124-8.188-3.124-11.314 0l-39.605 39.601-11.313-11.315 39.602-39.601c3.124-3.124 3.124-8.189 0-11.313s-8.188-3.124-11.314 0l-39.6 39.6-11.312-11.314 39.6-39.6c3.124-3.124 3.124-8.189 0-11.313-3.125-3.124-8.189-3.124-11.314 0l-39.599 39.599-24.848-24.851c31.109-11.299 59.401-29.554 82.555-53.207l122.174 122.174c-9.497 9.291-18.188 19.45-25.882 30.316zm77.663-114.306c13.765 13.773 15.543 35.271 4.229 51.114l-27.61 38.646-156.347-156.345 38.646-27.61c15.846-11.314 37.343-9.537 51.112 4.226l23.067 23.075c-2.885 4.873-4.427 10.445-4.427 16.256 0 8.548 3.329 16.583 9.374 22.628 6.238 6.238 14.433 9.357 22.627 9.357 5.631 0 11.261-1.473 16.258-4.418zm186.94-265.602-192.332 192.333-11.306-11.306 192.339-192.338c1.506-1.508 3.512-2.339 5.647-2.339s4.142.831 5.662 2.354c1.508 1.502 2.338 3.506 2.338 5.643s-.83 4.141-2.348 5.653z" fill="#000000" data-original="#000000" style="" class=""></path><path d="m177.844 254.96c-3.125-3.124-8.189-3.124-11.314 0-3.124 3.124-3.124 8.189 0 11.313l79.196 79.196c1.562 1.562 3.609 2.343 5.657 2.343s4.095-.781 5.657-2.343c3.124-3.124 3.124-8.189 0-11.313z" fill="#000000" data-original="#000000" style="" class=""></path></g></g></svg>