<svg viewBox="0 0 32 32" xmlns="http://www.w3.org/2000/svg" aria-hidden="true" role="presentation" focusable="false" style="display: block; height: 24px; width: 24px; fill: currentcolor;"><path d="M16 2c5.523 0 10 4.477 10 10 0 5.185-3.946 9.448-8.999 9.95L17 28h6v2H9v-2h6v-6.05C9.947 21.45 6 17.186 6 12 6 6.477 10.477 2 16 2zm1.44 12.633a2.98 2.98 0 0 1-1.218.359L16 15v.01c-1.38 0-2.5 1.128-2.5 2.524 0 1.165.783 2.152 1.853 2.44a7.986 7.986 0 0 0 6.953-3.051 4.611 4.611 0 0 1-4.867-2.29zM10.516 10a2.518 2.518 0 0 0-2.502 2.157l-.01.1a7.994 7.994 0 0 0 3.653 6.463 4.527 4.527 0 0 1-.157-1.186c0-1.59.817-2.99 2.052-3.798a2.995 2.995 0 0 1-.464-1.01l-.048-.235-.014-.12-.024-.308A2.519 2.519 0 0 0 10.516 10zm10.95 5a2.52 2.52 0 0 0 2.47-1.975 8 8 0 0 0-4.233-8.119c.192.504.297 1.05.297 1.619a4.527 4.527 0 0 1-1.704 3.546 3.005 3.005 0 0 1 .61 2.68l-.009-.07C18.99 13.969 20.124 15 21.466 15zM16 11a1 1 0 1 0 0 2 1 1 0 0 0 0-2zm-.316-6.994a8 8 0 0 0-6.776 4.288l.164-.06A4.54 4.54 0 0 1 10.516 8c1.438 0 2.72.667 3.55 1.708A2.981 2.981 0 0 1 16 9a2.52 2.52 0 0 0 2-2.475 2.518 2.518 0 0 0-2.157-2.502l-.16-.017z"></path></svg>